<mxfile host="app.diagrams.net" agent="Mozilla/5.0 (Windows NT 10.0; Win64; x64; rv:132.0) Gecko/20100101 Firefox/132.0" version="24.8.0">
  <diagram name="Pagina-1" id="o7er_3JSwbqKv7h95ZkJ">
    <mxGraphModel dx="1050" dy="558" grid="1" gridSize="10" guides="1" tooltips="1" connect="1" arrows="1" fold="1" page="1" pageScale="1" pageWidth="827" pageHeight="1169" math="0" shadow="0">
      <root>
        <mxCell id="0" />
        <mxCell id="1" parent="0" />
        <mxCell id="KI7EJrQLjo3R3d8mQip6-1" value="" style="ellipse;html=1;shape=startState;fillColor=#000000;strokeColor=#ff0000;" vertex="1" parent="1">
          <mxGeometry x="399" y="30" width="30" height="30" as="geometry" />
        </mxCell>
        <mxCell id="KI7EJrQLjo3R3d8mQip6-2" value="" style="edgeStyle=orthogonalEdgeStyle;html=1;verticalAlign=bottom;endArrow=open;endSize=8;strokeColor=#ff0000;rounded=0;entryX=0.5;entryY=0;entryDx=0;entryDy=0;" edge="1" source="KI7EJrQLjo3R3d8mQip6-1" parent="1" target="KI7EJrQLjo3R3d8mQip6-8">
          <mxGeometry relative="1" as="geometry">
            <mxPoint x="414" y="120" as="targetPoint" />
          </mxGeometry>
        </mxCell>
        <mxCell id="KI7EJrQLjo3R3d8mQip6-16" value="" style="edgeStyle=orthogonalEdgeStyle;rounded=0;orthogonalLoop=1;jettySize=auto;html=1;fillColor=#f8cecc;strokeColor=#b85450;" edge="1" parent="1" source="KI7EJrQLjo3R3d8mQip6-3" target="KI7EJrQLjo3R3d8mQip6-13">
          <mxGeometry relative="1" as="geometry">
            <Array as="points">
              <mxPoint x="510" y="385" />
              <mxPoint x="500" y="385" />
            </Array>
          </mxGeometry>
        </mxCell>
        <mxCell id="KI7EJrQLjo3R3d8mQip6-3" value="Quiz" style="rounded=1;whiteSpace=wrap;html=1;arcSize=40;fontColor=#000000;fillColor=#ffffc0;strokeColor=#ff0000;" vertex="1" parent="1">
          <mxGeometry x="450" y="320" width="120" height="40" as="geometry" />
        </mxCell>
        <mxCell id="KI7EJrQLjo3R3d8mQip6-15" value="" style="edgeStyle=orthogonalEdgeStyle;rounded=0;orthogonalLoop=1;jettySize=auto;html=1;fillColor=#f8cecc;strokeColor=#b85450;" edge="1" parent="1" source="KI7EJrQLjo3R3d8mQip6-5" target="KI7EJrQLjo3R3d8mQip6-13">
          <mxGeometry relative="1" as="geometry">
            <Array as="points">
              <mxPoint x="310" y="385" />
              <mxPoint x="320" y="385" />
            </Array>
          </mxGeometry>
        </mxCell>
        <mxCell id="KI7EJrQLjo3R3d8mQip6-5" value="Intrvista proprietario progetto" style="rounded=1;whiteSpace=wrap;html=1;arcSize=40;fontColor=#000000;fillColor=#ffffc0;strokeColor=#ff0000;" vertex="1" parent="1">
          <mxGeometry x="250" y="320" width="120" height="40" as="geometry" />
        </mxCell>
        <mxCell id="KI7EJrQLjo3R3d8mQip6-8" value="Background study" style="rounded=1;whiteSpace=wrap;html=1;arcSize=40;fontColor=#000000;fillColor=#ffffc0;strokeColor=#ff0000;" vertex="1" parent="1">
          <mxGeometry x="354" y="120" width="120" height="40" as="geometry" />
        </mxCell>
        <mxCell id="KI7EJrQLjo3R3d8mQip6-9" value="" style="edgeStyle=orthogonalEdgeStyle;html=1;verticalAlign=bottom;endArrow=open;endSize=8;strokeColor=#ff0000;rounded=0;entryX=0.5;entryY=0.4;entryDx=0;entryDy=0;entryPerimeter=0;" edge="1" source="KI7EJrQLjo3R3d8mQip6-8" parent="1" target="KI7EJrQLjo3R3d8mQip6-10">
          <mxGeometry relative="1" as="geometry">
            <mxPoint x="414" y="240" as="targetPoint" />
          </mxGeometry>
        </mxCell>
        <mxCell id="KI7EJrQLjo3R3d8mQip6-10" value="" style="shape=line;html=1;strokeWidth=6;strokeColor=#ff0000;" vertex="1" parent="1">
          <mxGeometry x="314" y="240" width="200" height="10" as="geometry" />
        </mxCell>
        <mxCell id="KI7EJrQLjo3R3d8mQip6-11" value="" style="edgeStyle=orthogonalEdgeStyle;html=1;verticalAlign=bottom;endArrow=open;endSize=8;strokeColor=#ff0000;rounded=0;entryX=0.5;entryY=0;entryDx=0;entryDy=0;" edge="1" source="KI7EJrQLjo3R3d8mQip6-10" parent="1" target="KI7EJrQLjo3R3d8mQip6-5">
          <mxGeometry relative="1" as="geometry">
            <mxPoint x="414" y="320" as="targetPoint" />
            <Array as="points">
              <mxPoint x="370" y="285" />
              <mxPoint x="310" y="285" />
            </Array>
          </mxGeometry>
        </mxCell>
        <mxCell id="KI7EJrQLjo3R3d8mQip6-12" value="" style="edgeStyle=orthogonalEdgeStyle;html=1;verticalAlign=bottom;endArrow=open;endSize=8;strokeColor=#ff0000;rounded=0;entryX=0.5;entryY=0;entryDx=0;entryDy=0;" edge="1" parent="1" target="KI7EJrQLjo3R3d8mQip6-3">
          <mxGeometry relative="1" as="geometry">
            <mxPoint x="264" y="330" as="targetPoint" />
            <mxPoint x="460" y="249" as="sourcePoint" />
            <Array as="points">
              <mxPoint x="460" y="249" />
              <mxPoint x="460" y="285" />
              <mxPoint x="534" y="285" />
            </Array>
          </mxGeometry>
        </mxCell>
        <mxCell id="KI7EJrQLjo3R3d8mQip6-13" value="" style="shape=line;html=1;strokeWidth=6;strokeColor=#ff0000;" vertex="1" parent="1">
          <mxGeometry x="310" y="410" width="200" height="10" as="geometry" />
        </mxCell>
        <mxCell id="KI7EJrQLjo3R3d8mQip6-14" value="" style="edgeStyle=orthogonalEdgeStyle;html=1;verticalAlign=bottom;endArrow=open;endSize=8;strokeColor=#ff0000;rounded=0;entryX=0.5;entryY=0;entryDx=0;entryDy=0;" edge="1" source="KI7EJrQLjo3R3d8mQip6-13" parent="1" target="KI7EJrQLjo3R3d8mQip6-17">
          <mxGeometry relative="1" as="geometry">
            <mxPoint x="414" y="490" as="targetPoint" />
          </mxGeometry>
        </mxCell>
        <mxCell id="KI7EJrQLjo3R3d8mQip6-22" value="" style="edgeStyle=orthogonalEdgeStyle;rounded=0;orthogonalLoop=1;jettySize=auto;html=1;fillColor=#f8cecc;strokeColor=#b85450;" edge="1" parent="1" source="KI7EJrQLjo3R3d8mQip6-17">
          <mxGeometry relative="1" as="geometry">
            <mxPoint x="410" y="640" as="targetPoint" />
          </mxGeometry>
        </mxCell>
        <mxCell id="KI7EJrQLjo3R3d8mQip6-23" value="no" style="edgeLabel;html=1;align=center;verticalAlign=middle;resizable=0;points=[];" vertex="1" connectable="0" parent="KI7EJrQLjo3R3d8mQip6-22">
          <mxGeometry x="-0.4333" y="-1" relative="1" as="geometry">
            <mxPoint x="11" y="3" as="offset" />
          </mxGeometry>
        </mxCell>
        <mxCell id="KI7EJrQLjo3R3d8mQip6-38" value="" style="edgeStyle=orthogonalEdgeStyle;rounded=0;orthogonalLoop=1;jettySize=auto;html=1;entryX=1;entryY=0.5;entryDx=0;entryDy=0;fillColor=#f8cecc;strokeColor=#b85450;" edge="1" parent="1" source="KI7EJrQLjo3R3d8mQip6-17" target="KI7EJrQLjo3R3d8mQip6-33">
          <mxGeometry relative="1" as="geometry">
            <mxPoint x="560" y="535" as="targetPoint" />
            <Array as="points">
              <mxPoint x="610" y="535" />
              <mxPoint x="610" y="920" />
            </Array>
          </mxGeometry>
        </mxCell>
        <mxCell id="KI7EJrQLjo3R3d8mQip6-39" value="si" style="edgeLabel;html=1;align=center;verticalAlign=middle;resizable=0;points=[];" vertex="1" connectable="0" parent="KI7EJrQLjo3R3d8mQip6-38">
          <mxGeometry x="-0.9441" y="3" relative="1" as="geometry">
            <mxPoint x="-4" y="-12" as="offset" />
          </mxGeometry>
        </mxCell>
        <mxCell id="KI7EJrQLjo3R3d8mQip6-17" value="&lt;font style=&quot;font-size: 10px;&quot;&gt;è stata già fatta la riunione con partner di promozione alimentare e personale medico?&lt;/font&gt;" style="rhombus;whiteSpace=wrap;html=1;fontColor=#000000;fillColor=#ffffc0;strokeColor=#ff0000;" vertex="1" parent="1">
          <mxGeometry x="355" y="490" width="110" height="90" as="geometry" />
        </mxCell>
        <mxCell id="KI7EJrQLjo3R3d8mQip6-30" value="" style="edgeStyle=orthogonalEdgeStyle;rounded=0;orthogonalLoop=1;jettySize=auto;html=1;fillColor=#f8cecc;strokeColor=#b85450;" edge="1" parent="1" source="KI7EJrQLjo3R3d8mQip6-24" target="KI7EJrQLjo3R3d8mQip6-28">
          <mxGeometry relative="1" as="geometry">
            <Array as="points">
              <mxPoint x="480" y="685" />
              <mxPoint x="500" y="685" />
            </Array>
          </mxGeometry>
        </mxCell>
        <mxCell id="KI7EJrQLjo3R3d8mQip6-24" value="" style="shape=line;html=1;strokeWidth=6;strokeColor=#ff0000;" vertex="1" parent="1">
          <mxGeometry x="310" y="640" width="200" height="10" as="geometry" />
        </mxCell>
        <mxCell id="KI7EJrQLjo3R3d8mQip6-25" value="" style="edgeStyle=orthogonalEdgeStyle;html=1;verticalAlign=bottom;endArrow=open;endSize=8;strokeColor=#ff0000;rounded=0;exitX=0.095;exitY=0.9;exitDx=0;exitDy=0;exitPerimeter=0;entryX=0.5;entryY=0;entryDx=0;entryDy=0;" edge="1" source="KI7EJrQLjo3R3d8mQip6-24" parent="1" target="KI7EJrQLjo3R3d8mQip6-26">
          <mxGeometry relative="1" as="geometry">
            <mxPoint x="410" y="720" as="targetPoint" />
          </mxGeometry>
        </mxCell>
        <mxCell id="KI7EJrQLjo3R3d8mQip6-26" value="Riunione con partner di promozione alimentare" style="rounded=1;whiteSpace=wrap;html=1;arcSize=40;fontColor=#000000;fillColor=#ffffc0;strokeColor=#ff0000;" vertex="1" parent="1">
          <mxGeometry x="250" y="720" width="120" height="40" as="geometry" />
        </mxCell>
        <mxCell id="KI7EJrQLjo3R3d8mQip6-27" value="" style="edgeStyle=orthogonalEdgeStyle;html=1;verticalAlign=bottom;endArrow=open;endSize=8;strokeColor=#ff0000;rounded=0;" edge="1" source="KI7EJrQLjo3R3d8mQip6-26" parent="1">
          <mxGeometry relative="1" as="geometry">
            <mxPoint x="310" y="820" as="targetPoint" />
          </mxGeometry>
        </mxCell>
        <mxCell id="KI7EJrQLjo3R3d8mQip6-28" value="Riunione con personale medico" style="rounded=1;whiteSpace=wrap;html=1;arcSize=40;fontColor=#000000;fillColor=#ffffc0;strokeColor=#ff0000;" vertex="1" parent="1">
          <mxGeometry x="440" y="720" width="120" height="40" as="geometry" />
        </mxCell>
        <mxCell id="KI7EJrQLjo3R3d8mQip6-29" value="" style="edgeStyle=orthogonalEdgeStyle;html=1;verticalAlign=bottom;endArrow=open;endSize=8;strokeColor=#ff0000;rounded=0;" edge="1" source="KI7EJrQLjo3R3d8mQip6-28" parent="1">
          <mxGeometry relative="1" as="geometry">
            <mxPoint x="500" y="820" as="targetPoint" />
          </mxGeometry>
        </mxCell>
        <mxCell id="KI7EJrQLjo3R3d8mQip6-31" value="" style="shape=line;html=1;strokeWidth=6;strokeColor=#ff0000;" vertex="1" parent="1">
          <mxGeometry x="280" y="820" width="240" height="10" as="geometry" />
        </mxCell>
        <mxCell id="KI7EJrQLjo3R3d8mQip6-32" value="" style="edgeStyle=orthogonalEdgeStyle;html=1;verticalAlign=bottom;endArrow=open;endSize=8;strokeColor=#ff0000;rounded=0;" edge="1" source="KI7EJrQLjo3R3d8mQip6-31" parent="1">
          <mxGeometry relative="1" as="geometry">
            <mxPoint x="400" y="900" as="targetPoint" />
          </mxGeometry>
        </mxCell>
        <mxCell id="KI7EJrQLjo3R3d8mQip6-33" value="Presentazione del sistema" style="rounded=1;whiteSpace=wrap;html=1;arcSize=40;fontColor=#000000;fillColor=#ffffc0;strokeColor=#ff0000;" vertex="1" parent="1">
          <mxGeometry x="340" y="900" width="120" height="40" as="geometry" />
        </mxCell>
        <mxCell id="KI7EJrQLjo3R3d8mQip6-34" value="" style="edgeStyle=orthogonalEdgeStyle;html=1;verticalAlign=bottom;endArrow=open;endSize=8;strokeColor=#ff0000;rounded=0;" edge="1" source="KI7EJrQLjo3R3d8mQip6-33" parent="1">
          <mxGeometry relative="1" as="geometry">
            <mxPoint x="400" y="1000" as="targetPoint" />
          </mxGeometry>
        </mxCell>
        <mxCell id="KI7EJrQLjo3R3d8mQip6-35" value="Prototipazione" style="rounded=1;whiteSpace=wrap;html=1;arcSize=40;fontColor=#000000;fillColor=#ffffc0;strokeColor=#ff0000;" vertex="1" parent="1">
          <mxGeometry x="340" y="1000" width="120" height="40" as="geometry" />
        </mxCell>
        <mxCell id="KI7EJrQLjo3R3d8mQip6-36" value="" style="edgeStyle=orthogonalEdgeStyle;html=1;verticalAlign=bottom;endArrow=open;endSize=8;strokeColor=#ff0000;rounded=0;" edge="1" source="KI7EJrQLjo3R3d8mQip6-35" parent="1">
          <mxGeometry relative="1" as="geometry">
            <mxPoint x="400" y="1100" as="targetPoint" />
          </mxGeometry>
        </mxCell>
        <mxCell id="KI7EJrQLjo3R3d8mQip6-44" value="" style="edgeStyle=orthogonalEdgeStyle;rounded=0;orthogonalLoop=1;jettySize=auto;html=1;entryX=0.705;entryY=0.1;entryDx=0;entryDy=0;entryPerimeter=0;fillColor=#f8cecc;strokeColor=#b85450;" edge="1" parent="1" source="KI7EJrQLjo3R3d8mQip6-40" target="KI7EJrQLjo3R3d8mQip6-10">
          <mxGeometry relative="1" as="geometry">
            <mxPoint x="550" y="1145" as="targetPoint" />
            <Array as="points">
              <mxPoint x="710" y="1145" />
              <mxPoint x="710" y="220" />
              <mxPoint x="455" y="220" />
            </Array>
          </mxGeometry>
        </mxCell>
        <mxCell id="KI7EJrQLjo3R3d8mQip6-45" value="si" style="edgeLabel;html=1;align=center;verticalAlign=middle;resizable=0;points=[];" vertex="1" connectable="0" parent="KI7EJrQLjo3R3d8mQip6-44">
          <mxGeometry x="-0.3451" y="2" relative="1" as="geometry">
            <mxPoint x="-218" y="213" as="offset" />
          </mxGeometry>
        </mxCell>
        <mxCell id="KI7EJrQLjo3R3d8mQip6-47" value="" style="edgeStyle=orthogonalEdgeStyle;rounded=0;orthogonalLoop=1;jettySize=auto;html=1;fillColor=#f8cecc;strokeColor=#b85450;" edge="1" parent="1" source="KI7EJrQLjo3R3d8mQip6-40">
          <mxGeometry relative="1" as="geometry">
            <mxPoint x="400" y="1315" as="targetPoint" />
          </mxGeometry>
        </mxCell>
        <mxCell id="KI7EJrQLjo3R3d8mQip6-49" value="no" style="edgeLabel;html=1;align=center;verticalAlign=middle;resizable=0;points=[];" vertex="1" connectable="0" parent="KI7EJrQLjo3R3d8mQip6-47">
          <mxGeometry x="-0.6335" y="-4" relative="1" as="geometry">
            <mxPoint x="14" y="-3" as="offset" />
          </mxGeometry>
        </mxCell>
        <mxCell id="KI7EJrQLjo3R3d8mQip6-40" value="Sono stati Riscontrati problemi Rilevanti?" style="rhombus;whiteSpace=wrap;html=1;fontColor=#000000;fillColor=#ffffc0;strokeColor=#ff0000;" vertex="1" parent="1">
          <mxGeometry x="335" y="1100" width="130" height="90" as="geometry" />
        </mxCell>
        <mxCell id="KI7EJrQLjo3R3d8mQip6-48" value="" style="ellipse;html=1;shape=endState;fillColor=#000000;strokeColor=#ff0000;" vertex="1" parent="1">
          <mxGeometry x="384" y="1310" width="30" height="30" as="geometry" />
        </mxCell>
      </root>
    </mxGraphModel>
  </diagram>
</mxfile>
